<?xml version="1.0" standalone="no"?>
<!DOCTYPE svg PUBLIC "-//W3C//DTD SVG 20010904//EN"
 "http://www.w3.org/TR/2001/REC-SVG-20010904/DTD/svg10.dtd">
<svg version="1.0" xmlns="http://www.w3.org/2000/svg"
 width="48.000000pt" height="48.000000pt" viewBox="0 0 48.000000 48.000000"
 preserveAspectRatio="xMidYMid meet">
<metadata>
Created by potrace 1.16, written by Peter Selinger 2001-2019
</metadata>
<g transform="translate(0.000000,48.000000) scale(0.100000,-0.100000)"
fill="#000000" stroke="none">
<path d="M60 277 c0 -44 0 -44 85 -100 47 -32 89 -57 95 -57 6 0 48 25 95 57
85 56 85 56 85 100 0 23 -2 43 -5 43 -3 0 -43 -25 -90 -57 l-85 -56 -85 56
c-47 32 -87 57 -90 57 -3 0 -5 -20 -5 -43z"/>
</g>
</svg>
